HIERARCHY
ROOT reference
{
  OFFSET 0 0 0
  CHANNELS 6 Xposition Yposition Zposition Zrotation Xrotation Yrotation
  JOINT Hips
  {
    OFFSET 355.919 86.4685 225.794
    CHANNELS 3 Zrotation Xrotation Yrotation
    JOINT RightUpLeg
    {
      OFFSET -9.27022 -1.53975 0.0125073
      CHANNELS 3 Zrotation Xrotation Yrotation
      JOINT RightLeg
      {
        OFFSET 0.013591 -41.8786 0.0152335
        CHANNELS 3 Zrotation Xrotation Yrotation
        JOINT RightFoot
        {
          OFFSET -0.635566 -43.1371 -0.638083
          CHANNELS 3 Zrotation Xrotation Yrotation
          End Site
          {
            OFFSET 0 -7.69 17.5
          }
        }
      }
    }
    JOINT LeftUpLeg
    {
      OFFSET 9.3307 -1.62449 -0.0651281
      CHANNELS 3 Zrotation Xrotation Yrotation
      JOINT LeftLeg
      {
        OFFSET 0.136006 -41.8606 -0.0682192
        CHANNELS 3 Zrotation Xrotation Yrotation
        JOINT LeftFoot
        {
          OFFSET 0.555276 -40.3296 1.11688
          CHANNELS 3 Zrotation Xrotation Yrotation
          End Site
          {
            OFFSET 0 -7.69 17.5
          }
        }
      }
    }
    JOINT Spine
    {
      OFFSET 0.0523142 14.2998 0.0636653
      CHANNELS 3 Zrotation Xrotation Yrotation
      JOINT Spine1
      {
        OFFSET 0.0411785 9.71676 0.0113233
        CHANNELS 3 Zrotation Xrotation Yrotation
        JOINT Spine2
        {
          OFFSET 0.0674534 10.1151 -0.00111457
          CHANNELS 3 Zrotation Xrotation Yrotation
          JOINT Spine3
          {
            OFFSET 0.048863 9.72171 0.0174249
            CHANNELS 3 Zrotation Xrotation Yrotation
            JOINT Neck
            {
              OFFSET 0.180558 10.3768 0.0617075
              CHANNELS 3 Zrotation Xrotation Yrotation
              JOINT Head
              {
                OFFSET 0.135918 9.47305 0.0380206
                CHANNELS 3 Zrotation Xrotation Yrotation
                End Site
                {
                  OFFSET 0 15.95 0
                }
              }
            }
            JOINT RightShoulder
            {
              OFFSET -3.15694 6.89408 0.00348883
              CHANNELS 3 Zrotation Xrotation Yrotation
              JOINT RightArm
              {
                OFFSET -12.7409 -0.0031918 0.045926
                CHANNELS 3 Zrotation Xrotation Yrotation
                JOINT RightForeArm
                {
                  OFFSET -26.5086 -0.0806184 0.00400063
                  CHANNELS 3 Zrotation Xrotation Yrotation
                  JOINT RightHand
                  {
                    OFFSET -26.0338 -0.025514 0.155859
                    CHANNELS 3 Zrotation Xrotation Yrotation
                    JOINT RightHandThumb1
                    {
                      OFFSET -2.48905 0.190105 3.12053
                      CHANNELS 3 Zrotation Xrotation Yrotation
                      JOINT RightHandThumb2
                      {
                        OFFSET -3.68274 0 0
                        CHANNELS 3 Zrotation Xrotation Yrotation
                        JOINT RightHandThumb3
                        {
                          OFFSET -2.55832 0 0
                          CHANNELS 3 Zrotation Xrotation Yrotation
                          End Site
                          {
                            OFFSET -2.194 0 0
                          }
                        }
                      }
                    }
                    JOINT RightInHandIndex
                    {
                      OFFSET -3.22368 0.508421 1.97842
                      CHANNELS 3 Zrotation Xrotation Yrotation
                      JOINT RightHandIndex1
                      {
                        OFFSET -5.21684 -0.091368 0.999158
                        CHANNELS 3 Zrotation Xrotation Yrotation
                        JOINT RightHandIndex2
                        {
                          OFFSET -3.61937 0 0
                          CHANNELS 3 Zrotation Xrotation Yrotation
                          JOINT RightHandIndex3
                          {
                            OFFSET -2.0521 0 0
                            CHANNELS 3 Zrotation Xrotation Yrotation
                            End Site
                            {
                              OFFSET -1.805 0 0
                            }
                          }
                        }
                      }
                    }
                    JOINT RightInHandMiddle
                    {
                      OFFSET -3.38211 0.517263 0.756737
                      CHANNELS 3 Zrotation Xrotation Yrotation
                      JOINT RightHandMiddle1
                      {
                        OFFSET -5.17411 -0.084 0.313895
                        CHANNELS 3 Zrotation Xrotation Yrotation
                        JOINT RightHandMiddle2
                        {
                          OFFSET -3.94947 0 0
                          CHANNELS 3 Zrotation Xrotation Yrotation
                          JOINT RightHandMiddle3
                          {
                            OFFSET -2.47579 0 0
                            CHANNELS 3 Zrotation Xrotation Yrotation
                            End Site
                            {
                              OFFSET -1.975 0 0
                            }
                          }
                        }
                      }
                    }
                    JOINT RightInHandRing
                    {
                      OFFSET -3.36516 0.537895 -0.128947
                      CHANNELS 3 Zrotation Xrotation Yrotation
                      JOINT RightHandRing1
                      {
                        OFFSET -4.63474 -0.022105 -0.478947
                        CHANNELS 3 Zrotation Xrotation Yrotation
                        JOINT RightHandRing2
                        {
                          OFFSET -3.44238 0 0
                          CHANNELS 3 Zrotation Xrotation Yrotation
                          JOINT RightHandRing3
                          {
                            OFFSET -2.3881 0 0
                            CHANNELS 3 Zrotation Xrotation Yrotation
                            End Site
                            {
                              OFFSET -1.857 0 0
                            }
                          }
                        }
                      }
                    }
                    JOINT RightInHandPinky
                    {
                      OFFSET -3.16105 0.469368 -1.20179
                      CHANNELS 3 Zrotation Xrotation Yrotation
                      JOINT RightHandPinky1
                      {
                        OFFSET -4.14105 -0.022105 -1.09053
                        CHANNELS 3 Zrotation Xrotation Yrotation
                        JOINT RightHandPinky2
                        {
                          OFFSET -2.75653 0 0
                          CHANNELS 3 Zrotation Xrotation Yrotation
                          JOINT RightHandPinky3
                          {
                            OFFSET -1.74189 0 0
                            CHANNELS 3 Zrotation Xrotation Yrotation
                            End Site
                            {
                              OFFSET -1.645 0 0
                            }
                          }
                        }
                      }
                    }
                  }
                }
              }
            }
            JOINT LeftShoulder
            {
              OFFSET 3.22505 6.94333 0.022328
              CHANNELS 3 Zrotation Xrotation Yrotation
              JOINT LeftArm
              {
                OFFSET 12.8536 -0.0213048 -0.00476292
                CHANNELS 3 Zrotation Xrotation Yrotation
                JOINT LeftForeArm
                {
                  OFFSET 26.4992 -0.0497473 -0.102272
                  CHANNELS 3 Zrotation Xrotation Yrotation
                  JOINT LeftHand
                  {
                    OFFSET 25.9818 -0.0182282 -0.0189166
                    CHANNELS 3 Zrotation Xrotation Yrotation
                    JOINT LeftHandThumb1
                    {
                      OFFSET 2.48905 0.190105 3.12053
                      CHANNELS 3 Zrotation Xrotation Yrotation
                      JOINT LeftHandThumb2
                      {
                        OFFSET 3.68274 0 0
                        CHANNELS 3 Zrotation Xrotation Yrotation
                        JOINT LeftHandThumb3
                        {
                          OFFSET 2.55832 0 0
                          CHANNELS 3 Zrotation Xrotation Yrotation
                          End Site
                          {
                            OFFSET 2.194 0 0
                          }
                        }
                      }
                    }
                    JOINT LeftInHandIndex
                    {
                      OFFSET 3.22368 0.508421 1.97842
                      CHANNELS 3 Zrotation Xrotation Yrotation
                      JOINT LeftHandIndex1
                      {
                        OFFSET 5.21684 -0.091368 0.999158
                        CHANNELS 3 Zrotation Xrotation Yrotation
                        JOINT LeftHandIndex2
                        {
                          OFFSET 3.61937 0 0
                          CHANNELS 3 Zrotation Xrotation Yrotation
                          JOINT LeftHandIndex3
                          {
                            OFFSET 2.0521 0 0
                            CHANNELS 3 Zrotation Xrotation Yrotation
                            End Site
                            {
                              OFFSET 1.805 0 0
                            }
                          }
                        }
                      }
                    }
                    JOINT LeftInHandMiddle
                    {
                      OFFSET 3.38211 0.517263 0.756737
                      CHANNELS 3 Zrotation Xrotation Yrotation
                      JOINT LeftHandMiddle1
                      {
                        OFFSET 5.17411 -0.084 0.313895
                        CHANNELS 3 Zrotation Xrotation Yrotation
                        JOINT LeftHandMiddle2
                        {
                          OFFSET 3.94947 0 0
                          CHANNELS 3 Zrotation Xrotation Yrotation
                          JOINT LeftHandMiddle3
                          {
                            OFFSET 2.47579 0 0
                            CHANNELS 3 Zrotation Xrotation Yrotation
                            End Site
                            {
                              OFFSET 1.975 0 0
                            }
                          }
                        }
                      }
                    }
                    JOINT LeftInHandRing
                    {
                      OFFSET 3.36516 0.537895 -0.128947
                      CHANNELS 3 Zrotation Xrotation Yrotation
                      JOINT LeftHandRing1
                      {
                        OFFSET 4.63474 -0.022105 -0.478947
                        CHANNELS 3 Zrotation Xrotation Yrotation
                        JOINT LeftHandRing2
                        {
                          OFFSET 3.44238 0 0
                          CHANNELS 3 Zrotation Xrotation Yrotation
                          JOINT LeftHandRing3
                          {
                            OFFSET 2.3881 0 0
                            CHANNELS 3 Zrotation Xrotation Yrotation
                            End Site
                            {
                              OFFSET 1.857 0 0
                            }
                          }
                        }
                      }
                    }
                    JOINT LeftInHandPinky
                    {
                      OFFSET 3.16105 0.469368 -1.20179
                      CHANNELS 3 Zrotation Xrotation Yrotation
                      JOINT LeftHandPinky1
                      {
                        OFFSET 4.14105 -0.022105 -1.09053
                        CHANNELS 3 Zrotation Xrotation Yrotation
                        JOINT LeftHandPinky2
                        {
                          OFFSET 2.75653 0 0
                          CHANNELS 3 Zrotation Xrotation Yrotation
                          JOINT LeftHandPinky3
                          {
                            OFFSET 1.74189 0 0
                            CHANNELS 3 Zrotation Xrotation Yrotation
                            End Site
                            {
                              OFFSET 1.645 0 0
                            }
                          }
                        }
                      }
                    }
                  }
                }
              }
            }
          }
        }
      }
    }
  }
}
MOTION
Frames: 2
Frame Time: 0.00833333
7.500000000000000000e+02 0.000000000000000000e+00 0.000000000000000000e+00 0.000000000000000000e+00 0.000000000000000000e+00 0.000000000000000000e+00 1.584194286334003277e+00 2.472320136715863814e+00 -2.356070164427866764e+00 -5.122685927562515396e+00 -5.357075476468105002e+00 -8.277770353745880882e+00 4.318162178530916828e-02 3.191741964482047500e+00 1.246326917342856833e+00 2.141942428481121929e+00 -2.506120363753888469e+00 -2.920575327824510570e-01 5.473596623631385327e+00 -6.513348766734523565e+00 3.094617546468729330e+00 2.622707049343304675e-01 2.899829754124048975e+00 6.574370741615500613e-01 2.486303449297456059e+00 1.710005868032768550e+00 1.285875950117246980e+00 -3.704490485024288793e-01 3.816482454447258643e-01 -2.320831015196344715e+00 -5.565955291191280324e-02 1.158052665241264961e-01 -6.221714341826292127e-01 -8.559887257872884903e-02 1.926876231511157889e-01 -8.748753599830552119e-01 7.817803142564781760e-02 9.041011107068777641e-02 4.929040237833699767e-03 -3.107099434823268891e-01 1.170039553145266975e+00 2.222259799481526965e+00 6.517580427628173467e-01 2.561074246524090992e-01 -1.459642847483152650e+00 2.847964923354929567e+00 -5.519004876708438756e-02 -6.314495413938858714e-03 1.512160595074906633e+00 6.199460522858169398e+00 -3.354578102301775999e+00 -2.275780558117151742e+00 -1.263083101693684185e+01 -7.120324543548956164e+00 7.780575067327235583e-01 -6.594207206301643254e-01 1.974787456943489561e+00 0.000000000000000000e+00 0.000000000000000000e+00 0.000000000000000000e+00 -5.062866912881653600e-15 -7.804045685618119909e-16 0.000000000000000000e+00 -7.282531263600745740e-16 -5.384035867086076176e-16 0.000000000000000000e+00 2.879047467797628321e-16 -1.557104989431072369e-16 -1.678254859661724530e-15 0.000000000000000000e+00 0.000000000000000000e+00 0.000000000000000000e+00 0.000000000000000000e+00 1.229646092589321228e-15 5.715315041058223038e-15 0.000000000000000000e+00 3.654666731422192834e-15 -3.340803784185675337e-15 2.879047467797628321e-16 -1.557104989431072369e-16 -1.678254859661724530e-15 0.000000000000000000e+00 -3.006615700517662377e-16 2.794663604006154060e-15 0.000000000000000000e+00 6.957238788766186483e-15 8.421070026144754894e-15 0.000000000000000000e+00 2.032069991940745645e-15 2.147285923949772294e-15 2.879047467797628321e-16 -1.557104989431072369e-16 -1.678254859661724530e-15 0.000000000000000000e+00 0.000000000000000000e+00 0.000000000000000000e+00 0.000000000000000000e+00 2.904127198998254951e-15 5.417075147042279774e-15 0.000000000000000000e+00 2.034841956165568997e-15 -2.265872279602871900e-15 2.879047467797628321e-16 -1.557104989431072369e-16 -1.678254859661724530e-15 0.000000000000000000e+00 0.000000000000000000e+00 0.000000000000000000e+00 0.000000000000000000e+00 2.089149536446916170e-15 9.813874804719272982e-15 0.000000000000000000e+00 -3.095500643123917774e-15 -6.644620815213647332e-15 1.849990256493921681e+00 2.034079789663205240e+00 3.423296101587577578e+00 3.782021738676609957e+00 3.694246304200778042e+00 -9.804452893549711057e-01 6.531051655221356000e+00 -3.313214657267050001e+00 1.797813774021332378e+01 -1.605040341391168912e+00 1.385477833408286008e+00 1.632183009491352532e+00 0.000000000000000000e+00 0.000000000000000000e+00 0.000000000000000000e+00 -3.794261639857119096e-15 9.634122133579994418e-15 0.000000000000000000e+00 9.054528940302753992e-16 3.952040355185884971e-15 0.000000000000000000e+00 -8.616959649959997026e-16 7.105932951100352239e-16 -5.967942609709942969e-16 0.000000000000000000e+00 0.000000000000000000e+00 0.000000000000000000e+00 0.000000000000000000e+00 -3.975536297864052390e-15 1.797296180134982122e-15 0.000000000000000000e+00 -2.609421859131330203e-15 3.578367696070028510e-15 -8.616959649959997026e-16 7.105932951100352239e-16 -5.967942609709942969e-16 0.000000000000000000e+00 -3.468819521336437479e-16 2.511797096094597795e-15 0.000000000000000000e+00 -2.398025922242613110e-16 1.508509269586453195e-16 0.000000000000000000e+00 -3.725073828186231782e-15 6.013432841926198608e-15 -8.616959649959997026e-16 7.105932951100352239e-16 -5.967942609709942969e-16 0.000000000000000000e+00 0.000000000000000000e+00 0.000000000000000000e+00 0.000000000000000000e+00 3.135127996171537026e-15 -3.636790449847229585e-15 0.000000000000000000e+00 3.407051494432860227e-16 -4.197713900517766701e-15 -8.616959649959997026e-16 7.105932951100352239e-16 -5.967942609709942969e-16 0.000000000000000000e+00 0.000000000000000000e+00 0.000000000000000000e+00 0.000000000000000000e+00 -1.511489041853771663e-15 -1.192389898509508509e-15 0.000000000000000000e+00 1.191560658852285341e-15 -2.996912433567143990e-16
7.500000000000000000e+02 0.000000000000000000e+00 0.000000000000000000e+00 0.000000000000000000e+00 0.000000000000000000e+00 0.000000000000000000e+00 1.565033909132039547e+00 2.481649510814341042e+00 -2.128201934681377416e+00 -5.187888357167606657e+00 -5.524513399566281180e+00 -8.294612798473096404e+00 9.652206534448670716e-02 3.227121099209198096e+00 1.105308848923302500e+00 1.987258841434062617e+00 -2.384196953241615180e+00 -2.312099418894340008e-01 5.423193505725392605e+00 -6.612721951438416568e+00 3.203951138241107888e+00 3.427711973730793726e-01 2.932132868048784147e+00 5.635659323643011920e-01 2.228615496812583974e+00 1.602773751485794484e+00 9.661300023867390729e-01 -3.468205219512047188e-01 4.640582605099772828e-01 -2.198676838506183451e+00 -5.015738608290611078e-02 1.358881327728500565e-01 -5.927574861116436944e-01 -7.670918677491951609e-02 2.263894506288269548e-01 -8.278557698573861812e-01 7.448876767673007215e-02 9.251900512025924839e-02 -5.299137540958197279e-03 -2.723772077791409285e-01 1.229826031726369839e+00 1.872315316727435563e+00 6.067563991510036558e-01 1.096797434769210544e-01 -1.431196143326028070e+00 2.751318146814481835e+00 -6.991219032535661571e-02 7.511410402879653558e-02 1.965761022775787126e+00 6.189479667534873109e+00 -3.167541022668045603e+00 -1.918218896751514357e+00 -1.234145676899619559e+01 -7.218405074784612907e+00 7.136741934896836392e-01 -6.363737944123959434e-01 1.843330224940437301e+00 0.000000000000000000e+00 0.000000000000000000e+00 0.000000000000000000e+00 -4.837804215033328458e-15 -8.555758895667043835e-16 0.000000000000000000e+00 -7.936696008622038770e-16 -5.841492973047157714e-16 0.000000000000000000e+00 3.670554111851715888e-16 -8.951418578508266568e-17 -1.571226616453364310e-15 0.000000000000000000e+00 0.000000000000000000e+00 0.000000000000000000e+00 0.000000000000000000e+00 1.191115339795163753e-15 5.367242017879865766e-15 0.000000000000000000e+00 3.468251731099557704e-15 -3.167006500452611313e-15 3.670554111851715888e-16 -8.951418578508266568e-17 -1.571226616453364310e-15 0.000000000000000000e+00 -2.117460732859914054e-16 2.502394731829550231e-15 0.000000000000000000e+00 6.505054681500480703e-15 7.883253019253814798e-15 0.000000000000000000e+00 1.836060638400520995e-15 1.871732012411787383e-15 3.670554111851715888e-16 -8.951418578508266568e-17 -1.571226616453364310e-15 0.000000000000000000e+00 0.000000000000000000e+00 0.000000000000000000e+00 0.000000000000000000e+00 2.725227059453794728e-15 4.911482358782330337e-15 0.000000000000000000e+00 1.992452373664385350e-15 -2.156275950732458085e-15 3.670554111851715888e-16 -8.951418578508266568e-17 -1.571226616453364310e-15 0.000000000000000000e+00 0.000000000000000000e+00 0.000000000000000000e+00 0.000000000000000000e+00 1.882628023666976873e-15 9.292747529059068637e-15 0.000000000000000000e+00 -3.033432178515656514e-15 -6.367481139030672640e-15 1.961143709283644343e+00 2.061814316001758574e+00 3.403849048320609860e+00 3.549813244535925172e+00 3.622211722938346590e+00 -7.109948524972024009e-01 6.239173038814289640e+00 -3.319968672255696251e+00 1.787184669062994757e+01 -1.480736552785358873e+00 1.278486708230706537e+00 1.760272491199173395e+00 0.000000000000000000e+00 0.000000000000000000e+00 0.000000000000000000e+00 -3.557251154308774593e-15 9.009997247076298249e-15 0.000000000000000000e+00 8.377109858769734918e-16 3.713317407059456912e-15 0.000000000000000000e+00 -8.127454618684740217e-16 5.796034682348844369e-16 -6.001698640119306859e-16 0.000000000000000000e+00 0.000000000000000000e+00 0.000000000000000000e+00 0.000000000000000000e+00 -3.739744802278068801e-15 1.699174451969235988e-15 0.000000000000000000e+00 -2.495302391606990624e-15 3.299803245096113141e-15 -8.127454618684740217e-16 5.796034682348844369e-16 -6.001698640119306859e-16 0.000000000000000000e+00 -2.967663977643244086e-16 2.362594159731040280e-15 0.000000000000000000e+00 -2.184971021314935674e-16 9.792780080948168979e-17 0.000000000000000000e+00 -3.486698645313142955e-15 5.637902376673879944e-15 -8.127454618684740217e-16 5.796034682348844369e-16 -6.001698640119306859e-16 0.000000000000000000e+00 0.000000000000000000e+00 0.000000000000000000e+00 0.000000000000000000e+00 3.020919721070955041e-15 -3.397907451775657359e-15 0.000000000000000000e+00 4.120072463604938401e-16 -3.999550769580770065e-15 -8.127454618684740217e-16 5.796034682348844369e-16 -6.001698640119306859e-16 0.000000000000000000e+00 0.000000000000000000e+00 0.000000000000000000e+00 0.000000000000000000e+00 -1.376320365338199837e-15 -1.159800769179028405e-15 0.000000000000000000e+00 1.132416674813940624e-15 -3.884005573717468546e-16
